<svg version="1.2" xmlns="http://www.w3.org/2000/svg" viewBox="0 0 297 297" width="297" height="297">
	<title>eraser-svgrepo-com-svg</title>
	<style>
		.s0 { fill: #000000 } 
	</style>
	<g id="Layer">
		<g id="Layer">
			<path id="Layer" fill-rule="evenodd" class="s0" d="m297 269.7c0 5.2-4.2 9.4-9.4 9.4h-278.2c-5.2 0-9.4-4.2-9.4-9.4 0-5.3 4.2-9.5 9.4-9.5h32.2l-29.8-29.8c-5.1-5-7.9-11.7-7.9-18.9 0-7.1 2.8-13.9 7.9-18.9l166.9-166.9c10.4-10.4 27.4-10.4 37.8 0l64.8 64.8c10.5 10.5 10.5 27.4 0 37.9l-131.8 131.8h138c5.3 0 9.5 4.2 9.5 9.5zm-213.6-122l75.9 76 108.7-108.7c1.4-1.5 2.3-3.5 2.3-5.6 0-2.1-0.9-4-2.3-5.5l-64.9-64.8c-3-3.1-8-3.1-11.1 0zm62.6 89.3l-75.9-76-44.9 44.9c-3.1 3.1-3.1 8.1 0 11.1l43.1 43.2h54.5z"/>
		</g>
	</g>
	<g id="Layer">
	</g>
	<g id="Layer">
	</g>
	<g id="Layer">
	</g>
	<g id="Layer">
	</g>
	<g id="Layer">
	</g>
	<g id="Layer">
	</g>
	<g id="Layer">
	</g>
	<g id="Layer">
	</g>
	<g id="Layer">
	</g>
	<g id="Layer">
	</g>
	<g id="Layer">
	</g>
	<g id="Layer">
	</g>
	<g id="Layer">
	</g>
	<g id="Layer">
	</g>
	<g id="Layer">
	</g>
</svg>